<svg width="38" height="51" viewBox="0 0 38 50" fill="none" xmlns="http://www.w3.org/2000/svg">
<g clip-path="url(#clip0_1861_3916)">
<g filter="url(#filter0_d_1861_3916)">
<path d="M14.6131 27.3677L19.1136 29.966L9.97465 45.7951L7.35156 39.9451L14.6131 27.3677Z" fill="#AA75CB"/>
<path d="M14.613 27.3674L10.1126 24.769L0.973633 40.5982L7.35143 39.9448L14.613 27.3674Z" fill="#73488D"/>
<path d="M21.0337 27.3677L16.5332 29.966L25.6722 45.7951L28.2953 39.9451L21.0337 27.3677Z" fill="#73488D"/>
<path d="M21.0342 27.3674L25.5346 24.769L34.6735 40.5982L28.2958 39.9448L21.0342 27.3674Z" fill="#AA75CB"/>
<path d="M17.8161 32.099C26.4486 32.099 33.4467 25.101 33.4467 16.4685C33.4467 7.83594 26.4486 0.837891 17.8161 0.837891C9.18359 0.837891 2.18555 7.83594 2.18555 16.4685C2.18555 25.101 9.18359 32.099 17.8161 32.099Z" fill="#DC9E42" stroke="#774700" stroke-width="0.280189"/>
<path d="M17.8162 28.5631C24.4958 28.5631 29.9107 23.1482 29.9107 16.4685C29.9107 9.78893 24.4958 4.37402 17.8162 4.37402C11.1366 4.37402 5.72168 9.78893 5.72168 16.4685C5.72168 23.1482 11.1366 28.5631 17.8162 28.5631Z" fill="#734C12"/>
<mask id="mask0_1861_3916" style="mask-type:alpha" maskUnits="userSpaceOnUse" x="6" y="5" width="25" height="25">
<path d="M18.4615 29.8821C25.1567 29.8821 30.5842 24.4546 30.5842 17.7594C30.5842 11.0642 25.1567 5.63672 18.4615 5.63672C11.7664 5.63672 6.33887 11.0642 6.33887 17.7594C6.33887 24.4546 11.7664 29.8821 18.4615 29.8821Z" fill="#C28B37"/>
</mask>
<g mask="url(#mask0_1861_3916)">
<path d="M17.816 28.5911C24.5112 28.5911 29.9387 23.1636 29.9387 16.4684C29.9387 9.77321 24.5112 4.3457 17.816 4.3457C11.1209 4.3457 5.69336 9.77321 5.69336 16.4684C5.69336 23.1636 11.1209 28.5911 17.816 28.5911Z" fill="#A36D1D"/>
</g>
<path d="M17.8822 8.03516L20.4972 13.2652L25.7273 13.919L22.136 17.9461L23.1122 23.7254L17.8822 21.1103L12.6521 23.7254L13.6371 17.9461L10.0371 13.919L15.2672 13.2652L17.8822 8.03516Z" fill="url(#paint0_linear_1861_3916)"/>
</g>
</g>
<defs>
<filter id="filter0_d_1861_3916" x="0.754101" y="0.478222" width="37.2126" height="48.6096" filterUnits="userSpaceOnUse" color-interpolation-filters="sRGB">
<feFlood flood-opacity="0" result="BackgroundImageFix"/>
<feColorMatrix in="SourceAlpha" type="matrix" values="0 0 0 0 0 0 0 0 0 0 0 0 0 0 0 0 0 0 127 0" result="hardAlpha"/>
<feOffset dx="1.53669" dy="1.53669"/>
<feGaussianBlur stdDeviation="0.878111"/>
<feComposite in2="hardAlpha" operator="out"/>
<feColorMatrix type="matrix" values="0 0 0 0 0 0 0 0 0 0 0 0 0 0 0 0 0 0 0.3 0"/>
<feBlend mode="normal" in2="BackgroundImageFix" result="effect1_dropShadow_1861_3916"/>
<feBlend mode="normal" in="SourceGraphic" in2="effect1_dropShadow_1861_3916" result="shape"/>
</filter>
<linearGradient id="paint0_linear_1861_3916" x1="17.8822" y1="8.03516" x2="17.8822" y2="23.7254" gradientUnits="userSpaceOnUse">
<stop stop-color="#FCFF80"/>
<stop offset="0.401042" stop-color="#FDE870"/>
<stop offset="1" stop-color="#FFC759"/>
</linearGradient>
<clipPath id="clip0_1861_3916">
<rect width="38" height="49.6923" fill="white"/>
</clipPath>
</defs>
</svg>
