<svg width="38" height="51" viewBox="0 0 38 50" fill="none" xmlns="http://www.w3.org/2000/svg">
<g clip-path="url(#clip0_1861_3901)">
<g filter="url(#filter0_d_1861_3901)">
<path d="M14.6141 27.3677L19.1145 29.966L9.97564 45.7951L7.35254 39.9451L14.6141 27.3677Z" fill="#418ED6"/>
<path d="M14.6139 27.3674L10.1136 24.769L0.974609 40.5982L7.3524 39.9448L14.6139 27.3674Z" fill="#2B63A6"/>
<path d="M21.0346 27.3677L16.5342 29.966L25.6732 45.7951L28.2963 39.9451L21.0346 27.3677Z" fill="#2B63A6"/>
<path d="M21.0342 27.3674L25.5346 24.769L34.6735 40.5982L28.2958 39.9448L21.0342 27.3674Z" fill="#418ED6"/>
<path d="M17.8171 32.099C26.4496 32.099 33.4477 25.101 33.4477 16.4685C33.4477 7.83594 26.4496 0.837891 17.8171 0.837891C9.18457 0.837891 2.18652 7.83594 2.18652 16.4685C2.18652 25.101 9.18457 32.099 17.8171 32.099Z" fill="#E3E3E3" stroke="#404040" stroke-width="0.280189"/>
<path d="M17.8172 28.5631C24.4968 28.5631 29.9117 23.1482 29.9117 16.4685C29.9117 9.78893 24.4968 4.37402 17.8172 4.37402C11.1376 4.37402 5.72266 9.78893 5.72266 16.4685C5.72266 23.1482 11.1376 28.5631 17.8172 28.5631Z" fill="#595959"/>
<mask id="mask0_1861_3901" style="mask-type:alpha" maskUnits="userSpaceOnUse" x="6" y="5" width="25" height="25">
<path d="M18.4625 29.8821C25.1577 29.8821 30.5852 24.4546 30.5852 17.7594C30.5852 11.0642 25.1577 5.63672 18.4625 5.63672C11.7674 5.63672 6.33984 11.0642 6.33984 17.7594C6.33984 24.4546 11.7674 29.8821 18.4625 29.8821Z" fill="#C28B37"/>
</mask>
<g mask="url(#mask0_1861_3901)">
<path d="M17.817 28.5911C24.5122 28.5911 29.9397 23.1636 29.9397 16.4684C29.9397 9.77321 24.5122 4.3457 17.817 4.3457C11.1218 4.3457 5.69434 9.77321 5.69434 16.4684C5.69434 23.1636 11.1218 28.5911 17.817 28.5911Z" fill="url(#paint0_linear_1861_3901)"/>
</g>
<path d="M17.8822 8.03516L20.4972 13.2652L25.7273 13.919L22.136 17.9461L23.1122 23.7254L17.8822 21.1103L12.6521 23.7254L13.6371 17.9461L10.0371 13.919L15.2672 13.2652L17.8822 8.03516Z" fill="url(#paint1_linear_1861_3901)"/>
</g>
</g>
<defs>
<filter id="filter0_d_1861_3901" x="0.755077" y="0.478222" width="37.2117" height="48.6096" filterUnits="userSpaceOnUse" color-interpolation-filters="sRGB">
<feFlood flood-opacity="0" result="BackgroundImageFix"/>
<feColorMatrix in="SourceAlpha" type="matrix" values="0 0 0 0 0 0 0 0 0 0 0 0 0 0 0 0 0 0 127 0" result="hardAlpha"/>
<feOffset dx="1.53669" dy="1.53669"/>
<feGaussianBlur stdDeviation="0.878111"/>
<feComposite in2="hardAlpha" operator="out"/>
<feColorMatrix type="matrix" values="0 0 0 0 0 0 0 0 0 0 0 0 0 0 0 0 0 0 0.3 0"/>
<feBlend mode="normal" in2="BackgroundImageFix" result="effect1_dropShadow_1861_3901"/>
<feBlend mode="normal" in="SourceGraphic" in2="effect1_dropShadow_1861_3901" result="shape"/>
</filter>
<linearGradient id="paint0_linear_1861_3901" x1="17.817" y1="4.34566" x2="17.817" y2="28.5911" gradientUnits="userSpaceOnUse">
<stop stop-color="#9CA1A3"/>
<stop offset="1" stop-color="#9CA1A3" stop-opacity="0"/>
</linearGradient>
<linearGradient id="paint1_linear_1861_3901" x1="17.8822" y1="8.03516" x2="17.8822" y2="23.7254" gradientUnits="userSpaceOnUse">
<stop stop-color="#F1F5F5"/>
<stop offset="0.0001" stop-color="white"/>
<stop offset="1" stop-color="#F1F5F5"/>
</linearGradient>
<clipPath id="clip0_1861_3901">
<rect width="38" height="49.6923" fill="white"/>
</clipPath>
</defs>
</svg>
